<?xml version="1.0" encoding="utf-8"?>
<!-- Generator: Adobe Illustrator 21.1.0, SVG Export Plug-In . SVG Version: 6.00 Build 0)  -->
<svg version="1.1" id="Layer_1" xmlns="http://www.w3.org/2000/svg" xmlns:xlink="http://www.w3.org/1999/xlink" x="0px" y="0px"
	 viewBox="0 0 141.8 145.4" style="enable-background:new 0 0 141.8 145.4;" xml:space="preserve">
<style type="text/css">
	.st0{fill:#FFFFFF;}
	.st1{fill:#3BB54A;}
</style>
<g id="Layer_1_1_">
	<g>
		<g>
			<circle class="st0" cx="71.1" cy="73.7" r="41.4"/>
		</g>
		<g>
			<g>
				<path class="st1" d="M79.2,67.8c0.7,0,2-0.4,3.2-1.9v1.7h2.8V52.7h-2.8V64c-0.4,0.4-1.1,1.1-1.7,1.1S80,64.8,80,64.2V52.9h-2.8
					v12.4C77.2,66.6,77.7,67.8,79.2,67.8z"/>
				<path class="st1" d="M66.8,63.9c0,2.6,1.3,3.9,4.1,3.9c2.2,0,3.9-1.5,3.9-3.9v-7.2c0-2.4-1.7-3.9-3.9-3.9
					c-2.4,0-4.1,1.7-4.1,3.9V63.9z M69.8,56.8c0-0.7,0.4-1.5,1.1-1.5c0.9,0,1.3,0.6,1.3,1.5v6.9c0,0.7-0.4,1.5-1.1,1.5
					c-0.7,0-1.1-0.6-1.1-1.5v-6.9H69.8z"/>
				<polygon class="st1" points="60.3,67.6 63.4,67.6 63.4,59.4 67,47.5 63.8,47.5 61.8,55.5 59.7,47.5 56.6,47.5 60.3,59.4 				"/>
			</g>
			<g>
				<path class="st1" d="M88.9,70.9H56.2c-3.5,0-6.3,2.8-6.3,6.3v16c0,3.5,2.8,6.3,6.3,6.3h32.5c3.5,0,6.3-2.8,6.3-6.3v-16
					C95.2,73.7,92.2,70.9,88.9,70.9z M60.7,94.9h-3V78.5h-3v-2.8h9.1v2.8h-3v16.3H60.7z M71.1,94.9h-2.6v-1.5
					c-0.6,0.6-0.9,0.9-1.5,1.3c-1.5,0.7-3.3,0.7-3.3-2V80.8h2.6v10.8c0,0.6,0.2,0.9,0.7,0.9s1.3-0.7,1.5-1.1V80.6h2.6V94.9z
					 M81.3,91.9c0,1.7-0.7,3.2-2.4,3.2c-0.9,0-1.7-0.4-2.4-1.3v1.1h-2.6V75.7h2.6v6.1c0.6-0.7,1.5-1.3,2.4-1.3
					c1.9,0,2.6,1.7,2.6,3.5v7.8H81.3z M90.9,88.2h-5v2.6c0,1.1,0,2,1.1,2s1.1-0.7,1.1-2v-0.9h2.8V91c0,2.8-1.1,4.5-3.9,4.5
					c-2.6,0-3.7-1.9-3.7-4.5v-6.3c0-2.4,1.7-4.1,3.9-4.1c2.6,0,3.7,1.7,3.7,4.1V88.2z"/>
				<path class="st1" d="M87,82.8c-0.9,0-1.1,0.7-1.1,1.7V86h2.4v-1.5C88.3,83.5,88.1,82.8,87,82.8z"/>
				<path class="st1" d="M76.8,83c-0.2,0.2-0.4,0.2-0.6,0.4v8.7c0.2,0.2,0.4,0.4,0.6,0.6c0.4,0.2,1.1,0.2,1.3-0.2
					c0.2-0.2,0.2-0.6,0.2-0.9v-7.2c0-0.6-0.2-0.9-0.4-1.1C77.9,82.8,77.4,82.6,76.8,83z"/>
			</g>
		</g>
	</g>
</g>
</svg>
