<?xml version="1.0" encoding="utf-8"?>
<!-- Generator: Adobe Illustrator 21.1.0, SVG Export Plug-In . SVG Version: 6.00 Build 0)  -->
<svg version="1.1" id="Layer_1" xmlns="http://www.w3.org/2000/svg" xmlns:xlink="http://www.w3.org/1999/xlink" x="0px" y="0px"
	 viewBox="0 0 141.8 145.4" style="enable-background:new 0 0 141.8 145.4;" xml:space="preserve">
<style type="text/css">
	.st0{fill:#FFFFFF;}
	.st1{fill:#3BB54A;}
</style>
<g id="Layer_1_2_">
	<g>
		<g>
			<circle class="st0" cx="71.6" cy="73.7" r="41.4"/>
		</g>
		<g>
			<path class="st1" d="M71.6,54.9c6.3,0,7.1,0,9.8,0.2c2.3,0.2,3.6,0.6,4.4,0.8c1.1,0.4,1.9,1,2.7,1.7c0.8,0.8,1.3,1.7,1.7,2.7
				c0.4,0.8,0.8,2.1,0.8,4.4c0.2,2.5,0.2,3.3,0.2,9.8c0,6.3,0,7.1-0.2,9.8c-0.2,2.3-0.6,3.6-0.8,4.4c-0.4,1.1-1,1.9-1.7,2.7
				c-0.8,0.8-1.7,1.3-2.7,1.7c-0.8,0.4-2.1,0.8-4.4,0.8C78.9,94,78.1,94,71.6,94c-6.3,0-7.1,0-9.8-0.2c-2.3-0.2-3.6-0.6-4.4-0.8
				c-1.1-0.4-1.9-1-2.7-1.7s-1.3-1.7-1.7-2.7c-0.4-0.8-0.8-2.1-0.8-4.4c-0.2-2.5-0.2-3.3-0.2-9.8c0-6.3,0-7.1,0.2-9.8
				c0.2-2.3,0.6-3.6,0.8-4.4c0.4-1.1,1-1.9,1.7-2.7s1.7-1.3,2.7-1.7c0.8-0.4,2.1-0.8,4.4-0.8C64.5,54.9,65.3,54.9,71.6,54.9
				 M71.6,50.5c-6.5,0-7.3,0-10,0.2c-2.5,0.2-4.2,0.6-5.7,1.1c-1.5,0.6-2.9,1.3-4.2,2.7c-1.3,1.3-2.1,2.7-2.7,4.2s-1,3.3-1.1,5.7
				c-0.2,2.5-0.2,3.4-0.2,10c0,6.5,0,7.3,0.2,10c0.2,2.5,0.6,4.2,1.1,5.7c0.6,1.5,1.3,2.9,2.7,4.2c1.3,1.3,2.7,2.1,4.2,2.7
				c1.5,0.6,3.3,1,5.7,1.1c2.5,0.2,3.4,0.2,10,0.2s7.3,0,10-0.2c2.5-0.2,4.2-0.6,5.7-1.1c1.5-0.6,2.9-1.3,4.2-2.7
				c1.3-1.3,2.1-2.7,2.7-4.2s1-3.3,1.1-5.7c0.2-2.5,0.2-3.4,0.2-10c0-6.5,0-7.3-0.2-10c-0.2-2.5-0.6-4.2-1.1-5.7
				c-0.6-1.5-1.3-2.9-2.7-4.2c-1.3-1.3-2.7-2.1-4.2-2.7c-1.5-0.6-3.3-1-5.7-1.1C78.9,50.5,78.1,50.5,71.6,50.5"/>
			<path class="st1" d="M71.6,62.2c-6.7,0-12.3,5.6-12.3,12.3c0,6.7,5.6,12.3,12.3,12.3c6.7,0,12.3-5.6,12.3-12.3
				C83.9,67.8,78.3,62.2,71.6,62.2 M71.6,82.5c-4.4,0-8-3.6-8-8s3.6-8,8-8s8,3.6,8,8S76,82.5,71.6,82.5"/>
			<path class="st1" d="M87.3,61.6c0,1.5-1.3,2.9-2.9,2.9s-2.9-1.3-2.9-2.9s1.3-2.9,2.9-2.9C86,58.8,87.3,60.1,87.3,61.6"/>
		</g>
	</g>
</g>
</svg>
